<svg width="24" height="25" viewBox="0 0 24 25" fill="none" xmlns="http://www.w3.org/2000/svg">
<path d="M12 7.25C11.0111 7.25 10.0444 7.54324 9.22215 8.09265C8.3999 8.64206 7.75904 9.42295 7.3806 10.3366C7.00216 11.2502 6.90315 12.2555 7.09607 13.2255C7.289 14.1954 7.7652 15.0863 8.46447 15.7855C9.16373 16.4848 10.0546 16.961 11.0245 17.1539C11.9945 17.3469 12.9998 17.2478 13.9134 16.8694C14.827 16.491 15.6079 15.8501 16.1573 15.0279C16.7068 14.2056 17 13.2389 17 12.25C17 10.9239 16.4732 9.65215 15.5355 8.71447C14.5979 7.77678 13.3261 7.25 12 7.25V7.25ZM12 15.25C11.4067 15.25 10.8266 15.0741 10.3333 14.7444C9.83994 14.4148 9.45542 13.9462 9.22836 13.3981C9.0013 12.8499 8.94189 12.2467 9.05764 11.6647C9.1734 11.0828 9.45912 10.5482 9.87868 10.1287C10.2982 9.70912 10.8328 9.4234 11.4147 9.30764C11.9967 9.19189 12.5999 9.2513 13.1481 9.47836C13.6962 9.70542 14.1648 10.0899 14.4944 10.5833C14.8241 11.0766 15 11.6567 15 12.25C15 13.0456 14.6839 13.8087 14.1213 14.3713C13.5587 14.9339 12.7956 15.25 12 15.25ZM17 6.25C16.8022 6.25 16.6089 6.30865 16.4444 6.41853C16.28 6.52841 16.1518 6.68459 16.0761 6.86732C16.0004 7.05004 15.9806 7.25111 16.0192 7.44509C16.0578 7.63907 16.153 7.81725 16.2929 7.95711C16.4327 8.09696 16.6109 8.1922 16.8049 8.23079C16.9989 8.26937 17.2 8.24957 17.3827 8.17388C17.5654 8.09819 17.7216 7.97002 17.8315 7.80557C17.9414 7.64112 18 7.44778 18 7.25C18 6.98478 17.8946 6.73043 17.7071 6.54289C17.5196 6.35536 17.2652 6.25 17 6.25ZM21.94 8.49C21.9234 7.63542 21.7611 6.78995 21.46 5.99C21.1808 5.26207 20.7516 4.60099 20.2003 4.0497C19.649 3.4984 18.9879 3.06922 18.26 2.79C17.4601 2.4889 16.6146 2.32657 15.76 2.31C14.79 2.25 14.47 2.25 12 2.25C9.53 2.25 9.21 2.25 8.24 2.31C7.38542 2.32657 6.53995 2.4889 5.74 2.79C5.01207 3.06922 4.35099 3.4984 3.7997 4.0497C3.2484 4.60099 2.81922 5.26207 2.54 5.99C2.2389 6.78995 2.07657 7.63542 2.06 8.49C2 9.47 2 9.79 2 12.25C2 14.71 2 15.03 2.06 16.01C2.07657 16.8646 2.2389 17.7101 2.54 18.51C2.81922 19.2379 3.2484 19.899 3.7997 20.4503C4.35099 21.0016 5.01207 21.4308 5.74 21.71C6.53995 22.0111 7.38542 22.1734 8.24 22.19C9.24 22.19 9.53 22.25 12 22.25C14.47 22.25 14.79 22.25 15.76 22.19C16.6146 22.1734 17.4601 22.0111 18.26 21.71C18.9879 21.4308 19.649 21.0016 20.2003 20.4503C20.7516 19.899 21.1808 19.2379 21.46 18.51C21.7611 17.7101 21.9234 16.8646 21.94 16.01C21.94 15.01 22 14.71 22 12.25C22 9.79 22 9.47 21.94 8.49ZM19.94 15.92C19.9225 16.5546 19.8043 17.1824 19.59 17.78C19.4128 18.2523 19.1327 18.6793 18.77 19.03C18.4214 19.3928 17.9936 19.6701 17.52 19.84C16.921 20.0631 16.289 20.1848 15.65 20.2C14.71 20.2 14.42 20.25 11.99 20.25C9.56 20.25 9.28 20.25 8.34 20.25C7.70202 20.2335 7.07075 20.1154 6.47 19.9C5.99766 19.7228 5.57067 19.4427 5.22 19.08C4.85715 18.7314 4.57992 18.3036 4.41 17.83C4.1878 17.2342 4.06615 16.6057 4.05 15.97C4.05 14.97 4.05 14.72 4.05 12.3C4.05 9.88 4.05 9.59 4.05 8.63C4.06724 7.99121 4.18884 7.35954 4.41 6.76C4.58256 6.29063 4.85953 5.86662 5.22 5.52C5.56858 5.15715 5.99641 4.87992 6.47 4.71C7.06899 4.4869 7.70099 4.36523 8.34 4.35C9.28 4.25 9.57 4.25 12 4.25C14.43 4.25 14.72 4.25 15.66 4.25C16.3021 4.26633 16.9373 4.38794 17.54 4.61C18.0094 4.78256 18.4334 5.05953 18.78 5.42C19.1428 5.76858 19.4201 6.19641 19.59 6.67C19.8348 7.27856 19.9735 7.92458 20 8.58C20 9.58 20.05 9.83 20.05 12.25C20.05 14.67 20 14.96 20 15.92H19.94Z" fill="#7F848D"/>
</svg>
