<svg width="24" height="25" viewBox="0 0 24 25" fill="none" xmlns="http://www.w3.org/2000/svg">
<path d="M18.83 9.69C18.7383 9.55429 18.6146 9.44319 18.4699 9.36647C18.3252 9.28975 18.1638 9.24975 18 9.25H15V7.25H17.2C17.4652 7.25 17.7196 7.14464 17.9071 6.95711C18.0946 6.76957 18.2 6.51522 18.2 6.25V2.25C18.2 1.98478 18.0946 1.73043 17.9071 1.54289C17.7196 1.35536 17.4652 1.25 17.2 1.25H14C12.4617 1.25 10.9865 1.86107 9.89878 2.94878C8.81107 4.03649 8.2 5.51174 8.2 7.05V9.25H6C5.73478 9.25 5.48043 9.35536 5.29289 9.54289C5.10536 9.73043 5 9.98478 5 10.25V14.25C5 14.5152 5.10536 14.7696 5.29289 14.9571C5.48043 15.1446 5.73478 15.25 6 15.25H8.2V22.25C8.2 22.5152 8.30536 22.7696 8.49289 22.9571C8.68043 23.1446 8.93478 23.25 9.2 23.25H14C14.2652 23.25 14.5196 23.1446 14.7071 22.9571C14.8946 22.7696 15 22.5152 15 22.25V15.25H16.4C16.6003 15.2502 16.796 15.1902 16.9618 15.0779C17.1276 14.9656 17.2559 14.8061 17.33 14.62L18.93 10.62C18.9904 10.4686 19.0129 10.3047 18.9954 10.1426C18.978 9.9805 18.9212 9.82512 18.83 9.69V9.69ZM15.72 13.25H14C13.7348 13.25 13.4804 13.3554 13.2929 13.5429C13.1054 13.7304 13 13.9848 13 14.25V21.25H10.2V14.25C10.2 13.9848 10.0946 13.7304 9.90711 13.5429C9.71957 13.3554 9.46522 13.25 9.2 13.25H7V11.25H9.2C9.46522 11.25 9.71957 11.1446 9.90711 10.9571C10.0946 10.7696 10.2 10.5152 10.2 10.25V7.05C10.2026 6.04299 10.6038 5.07798 11.3159 4.36591C12.028 3.65384 12.993 3.25264 14 3.25H16.2V5.25H15.4C15.0614 5.20067 14.7163 5.22137 14.3861 5.31082C14.0558 5.40026 13.7474 5.55655 13.48 5.77C13.3177 5.9399 13.1915 6.1409 13.109 6.36089C13.0265 6.58087 12.9894 6.81529 13 7.05V10.25C13 10.5152 13.1054 10.7696 13.2929 10.9571C13.4804 11.1446 13.7348 11.25 14 11.25H16.52L15.72 13.25Z" fill="#7F848D"/>
</svg>
