<svg width="24" height="25" viewBox="0 0 24 25" fill="none" xmlns="http://www.w3.org/2000/svg">
<path d="M15.4 11.41L10.5 8.25005C10.348 8.16228 10.1755 8.11608 10 8.11608C9.82446 8.11608 9.65202 8.16228 9.5 8.25005C9.35174 8.33557 9.22791 8.45771 9.14036 8.60479C9.05282 8.75187 9.00449 8.91895 9 9.09005V15.41C9.0013 15.5882 9.05019 15.7629 9.14161 15.9158C9.23303 16.0688 9.36367 16.1945 9.52 16.2801C9.66543 16.3657 9.83123 16.4106 10 16.41C10.1771 16.3979 10.3487 16.343 10.5 16.25L15.4 13.09C15.5403 12.9994 15.6557 12.875 15.7356 12.7283C15.8155 12.5815 15.8574 12.4171 15.8574 12.25C15.8574 12.083 15.8155 11.9186 15.7356 11.7718C15.6557 11.6251 15.5403 11.5007 15.4 11.41ZM11 13.57V10.93L13 12.25L11 13.57ZM19.38 4.76005L17.83 4.56005C13.991 4.09001 10.109 4.09001 6.27 4.56005L4.72 4.76005C3.97471 4.84116 3.2854 5.19392 2.78368 5.75098C2.28195 6.30803 2.00297 7.03036 2 7.78005V16.72C2.00636 17.4586 2.28051 18.1698 2.77155 18.7215C3.26259 19.2733 3.93715 19.6281 4.67 19.72L6.22 19.91C8.13776 20.1431 10.0681 20.2566 12 20.25C13.9323 20.25 15.8627 20.1298 17.78 19.89L19.33 19.7001C20.0628 19.6081 20.7374 19.2533 21.2285 18.7015C21.7195 18.1498 21.9936 17.4386 22 16.7001V7.78005C21.9985 7.03803 21.7265 6.322 21.235 5.76609C20.7435 5.21017 20.0662 4.8525 19.33 4.76005H19.38ZM20.05 16.76C20.0508 17.012 19.9565 17.2549 19.7859 17.4403C19.6154 17.6257 19.3811 17.7399 19.13 17.76L17.58 17.9501C13.9077 18.4101 10.1923 18.4101 6.52 17.9501L4.97 17.76C4.71889 17.7399 4.48463 17.6257 4.31406 17.4403C4.1435 17.2549 4.04919 17.012 4.05 16.76V7.78005C4.06192 7.532 4.16055 7.29601 4.32869 7.11325C4.49683 6.93049 4.7238 6.81256 4.97 6.78005L6.47 6.55005C10.1427 6.0967 13.8573 6.0967 17.53 6.55005L19.08 6.74005C19.3262 6.77256 19.5532 6.89049 19.7213 7.07325C19.8894 7.25601 19.9881 7.492 20 7.74005L20.05 16.76Z" fill="#7F848D"/>
</svg>
