<svg width="47" height="47" viewBox="0 0 47 47" fill="none" xmlns="http://www.w3.org/2000/svg">
<rect width="47" height="47" rx="20" fill="#3000EE"/>
<path d="M18.8031 33.625H15.625V20.575L13.5719 15.625H11.125V13.375H15.0906L16.9469 17.875H35.3969L31.375 25.7781C32.3313 25.9281 33.133 26.3687 33.7803 27.1C34.4268 27.8312 34.75 28.6938 34.75 29.6875C34.75 30.775 34.3705 31.7031 33.6115 32.4719C32.8518 33.2406 31.9281 33.625 30.8406 33.625C29.7344 33.625 28.8018 33.2406 28.0428 32.4719C27.283 31.7031 26.9031 30.775 26.9031 29.6875C26.9031 29.3125 26.95 28.9656 27.0437 28.6469C27.1375 28.3281 27.2687 28.0188 27.4375 27.7188L23.7531 27.3812L18.8031 33.625ZM28.9563 25.6094L31.7406 20.125L17.875 20.1531L19.8156 24.7656L28.9563 25.6094ZM17.875 25.4125V31.3469L21.2219 27.1562L18.4938 26.9031L17.875 25.4125ZM30.8125 31.375C31.3 31.375 31.7031 31.2108 32.0219 30.8823C32.3406 30.5545 32.5 30.1562 32.5 29.6875C32.5 29.2 32.3406 28.7969 32.0219 28.4781C31.7031 28.1594 31.3 28 30.8125 28C30.3438 28 29.9455 28.1594 29.6177 28.4781C29.2892 28.7969 29.125 29.2 29.125 29.6875C29.125 30.1562 29.2892 30.5545 29.6177 30.8823C29.9455 31.2108 30.3438 31.375 30.8125 31.375ZM28.9563 25.6094L19.8156 24.7656L28.9563 25.6094Z" fill="white"/>
</svg>
