<svg width="744" height="744" viewBox="0 0 744 744" fill="none" xmlns="http://www.w3.org/2000/svg">
<circle cx="370.87" cy="372.13" r="265.63" transform="rotate(90 370.87 372.13)" stroke="#3000EE" stroke-width="5"/>
<path d="M403.588 31.6764L407.404 32.4221L404.182 48.9102L400.366 48.1645L403.588 31.6764ZM392.876 46.7008L389.06 45.9551L392.282 29.4669L396.098 30.2126L392.876 46.7008ZM401.97 41.4596L393.914 39.8854L394.545 36.6584L402.6 38.2327L401.97 41.4596Z" fill="#3000EE"/>
<path d="M486.254 70.4311L500.839 59.2245L504.216 61.0532L502.821 79.4032L499.233 77.4602L500.894 61.4922L502.245 62.2237L489.758 72.3284L486.254 70.4311ZM491.261 69.0486L493.574 66.9443L501.172 71.0589L500.694 74.1575L491.261 69.0486Z" fill="#3000EE"/>
<path d="M565.814 119.98L576.941 107.393L579.854 109.968L568.728 122.555L565.814 119.98Z" fill="#3000EE"/>
<path d="M635.36 196.873L647.519 198.754L645 200.046L650.45 189.482L652.466 193.411L648.646 200.738L647.781 199.105L655.95 200.201L657.878 203.959L646.288 202.19L648.765 200.92L643.116 211.991L641.068 207.998L645.153 200.345L645.964 201.926L637.398 200.844L635.36 196.873Z" fill="#3000EE"/>
<path d="M683.526 338.193C683.476 336.898 683.639 335.683 684.012 334.548C684.402 333.428 684.973 332.446 685.725 331.601C686.478 330.756 687.373 330.081 688.41 329.578C689.449 329.09 690.599 328.822 691.862 328.774C693.126 328.726 694.293 328.906 695.365 329.314C696.438 329.737 697.382 330.342 698.196 331.128C699.011 331.929 699.648 332.874 700.105 333.961C700.579 335.048 700.84 336.247 700.89 337.558C700.945 339.013 700.739 340.334 700.272 341.521C699.821 342.723 699.123 343.742 698.178 344.578L695.781 342.171C696.415 341.571 696.878 340.913 697.171 340.197C697.48 339.481 697.619 338.707 697.588 337.876C697.558 337.092 697.403 336.378 697.122 335.732C696.841 335.086 696.452 334.532 695.954 334.071C695.456 333.609 694.875 333.255 694.209 333.008C693.543 332.777 692.811 332.677 692.012 332.707C691.212 332.738 690.49 332.893 689.844 333.174C689.199 333.471 688.645 333.868 688.184 334.366C687.722 334.864 687.376 335.445 687.145 336.11C686.914 336.776 686.814 337.5 686.843 338.283C686.875 339.115 687.064 339.876 687.41 340.568C687.773 341.258 688.301 341.879 688.994 342.429L686.786 345.01C685.781 344.248 685 343.285 684.443 342.121C683.887 340.973 683.581 339.664 683.526 338.193Z" fill="#3000EE"/>
<path d="M679.794 433.738C680.15 432.459 680.689 431.33 681.41 430.351C682.127 429.388 682.975 428.611 683.953 428.02C684.927 427.445 685.985 427.075 687.127 426.912C688.265 426.764 689.435 426.857 690.637 427.192C691.839 427.527 692.889 428.052 693.786 428.767C694.678 429.498 695.39 430.369 695.922 431.381C696.454 432.393 696.778 433.496 696.893 434.691C697.009 435.886 696.891 437.115 696.538 438.379C696.182 439.658 695.647 440.772 694.935 441.719C694.218 442.682 693.373 443.451 692.398 444.027C691.42 444.618 690.36 444.995 689.218 445.159C688.091 445.327 686.919 445.241 685.702 444.901C684.5 444.566 683.444 444.032 682.536 443.297C681.644 442.566 680.931 441.695 680.4 440.683C679.879 439.691 679.561 438.598 679.445 437.403C679.325 436.223 679.442 435.002 679.794 433.738ZM682.991 434.604C682.789 435.328 682.727 436.025 682.806 436.695C682.881 437.38 683.085 438.018 683.419 438.61C683.752 439.201 684.201 439.708 684.764 440.131C685.323 440.569 685.988 440.895 686.758 441.11C687.529 441.325 688.267 441.389 688.972 441.303C689.672 441.233 690.318 441.031 690.91 440.697C691.496 440.379 691.999 439.946 692.418 439.398C692.836 438.85 693.146 438.214 693.348 437.49C693.55 436.766 693.613 436.061 693.539 435.375C693.459 434.706 693.253 434.075 692.92 433.484C692.586 432.893 692.14 432.378 691.581 431.94C691.018 431.517 690.351 431.198 689.58 430.984C688.825 430.773 688.089 430.701 687.373 430.767C686.668 430.853 686.022 431.055 685.435 431.373C684.844 431.707 684.339 432.148 683.921 432.695C683.503 433.243 683.192 433.879 682.991 434.604Z" fill="#3000EE"/>
<path d="M647.636 525.247L661.848 534.206L659.774 537.495L648.243 530.225L643.75 537.351L641.07 535.662L647.636 525.247Z" fill="#3000EE"/>
<path d="M600.15 592.559L611.668 604.789L608.838 607.454L599.491 597.531L593.359 603.307L591.187 601.001L600.15 592.559Z" fill="#3000EE"/>
<path d="M538.726 645.711L539.911 664.066L536.511 665.852L522.048 654.473L525.66 652.576L537.997 662.849L536.637 663.563L535.199 647.564L538.726 645.711ZM537.086 650.639L537.545 653.733L529.897 657.751L527.589 655.629L537.086 650.639Z" fill="#3000EE"/>
<path d="M450.315 686.402L453.433 702.91L445.368 704.433C443.292 704.825 441.662 704.726 440.475 704.136C439.274 703.549 438.551 702.611 438.307 701.321C438.144 700.457 438.214 699.662 438.517 698.937C438.822 698.228 439.312 697.631 439.986 697.145C440.659 696.66 441.476 696.327 442.435 696.146L442.169 697.197C441.131 697.393 440.179 697.394 439.312 697.199C438.448 697.021 437.733 696.643 437.168 696.066C436.588 695.491 436.207 694.725 436.026 693.766C435.758 692.351 436.107 691.137 437.072 690.124C438.04 689.127 439.608 688.424 441.778 688.014L450.315 686.402ZM447.062 689.996L442.604 690.838C441.614 691.025 440.897 691.323 440.453 691.733C439.997 692.161 439.835 692.729 439.969 693.436C440.1 694.128 440.455 694.59 441.037 694.822C441.605 695.073 442.385 695.105 443.375 694.918L448.115 694.022L448.641 696.805L444.561 697.576C443.633 697.751 442.956 698.042 442.528 698.448C442.087 698.874 441.929 699.416 442.053 700.077C442.175 700.721 442.517 701.153 443.08 701.373C443.63 701.611 444.368 701.642 445.296 701.467L449.093 700.75L447.062 689.996Z" fill="#3000EE"/>
</svg>
