<svg width="94" height="93" viewBox="0 0 94 93" fill="none" xmlns="http://www.w3.org/2000/svg">
<rect x="0.362175" y="0.810791" width="92.9676" height="91.9459" rx="20" fill="#E2F3FF"/>
<path d="M61.5492 39.7522H32.1427C32.1292 39.7522 32.1203 39.7612 32.1203 39.7746V43.8691C32.1203 46.5539 34.3201 48.7313 37.0273 48.7313C38.8546 48.7313 40.4484 47.7436 41.2969 46.2755C41.4271 46.0465 41.674 45.9029 41.9389 45.9029C42.2038 45.9029 42.4462 46.0465 42.5809 46.2755C43.4249 47.7436 45.0187 48.7313 46.846 48.7313C48.6777 48.7313 50.276 47.7391 51.1155 46.2665C51.2457 46.0421 51.4837 45.9029 51.7396 45.9029H51.7665C52.0269 45.9029 52.2604 46.0421 52.3906 46.2665C53.2346 47.7391 54.8329 48.7313 56.6646 48.7313C59.3718 48.7313 61.5717 46.5539 61.5717 43.8691V39.7746C61.5717 39.7612 61.5627 39.7522 61.5492 39.7522Z" fill="#032A45" fill-opacity="0.15"/>
<path d="M63.4573 36.5242V30.7731C63.4573 29.9784 62.8153 29.3364 62.0206 29.3364H31.6713C30.8766 29.3364 30.2346 29.9784 30.2346 30.7731V36.5242C29.4849 36.5691 28.8878 37.1931 28.8878 37.9564V43.8691C28.8849 44.9558 29.1049 46.0315 29.5343 47.0297C29.7273 47.4877 29.9653 47.9187 30.2346 48.3272V63.8162C30.2346 64.6063 30.8766 65.2528 31.6713 65.2528H62.0206C62.8153 65.2528 63.4573 64.6108 63.4573 63.8162V48.3272C63.7309 47.9176 63.9654 47.4832 64.1577 47.0297C64.5842 46.0286 64.8042 44.9645 64.8042 43.8691V37.9564C64.8042 37.1931 64.2071 36.5691 63.4573 36.5242ZM33.4671 32.5689H60.2248V36.5197H33.4671V32.5689ZM49.7193 62.0248H43.9727V57.3512H49.7193V62.0248ZM60.2428 62.0248H52.5926V55.9146C52.5926 55.1199 51.9506 54.4779 51.1559 54.4779H42.536C41.7414 54.4779 41.0993 55.1199 41.0993 55.9146V62.0248H33.4671V51.1511C33.5973 51.214 33.732 51.2768 33.8712 51.3307C34.8723 51.7527 35.9364 51.9637 37.0318 51.9637C38.1273 51.9637 39.1868 51.7527 40.1925 51.3307C40.812 51.0703 41.3957 50.7381 41.9299 50.3385C41.9389 50.334 41.9479 50.334 41.9569 50.3385C42.4928 50.7398 43.0764 51.0731 43.6943 51.3307C44.6955 51.7527 45.7595 51.9637 46.8549 51.9637C47.9504 51.9637 49.0099 51.7527 50.0156 51.3307C50.6351 51.0703 51.2188 50.7381 51.753 50.3385C51.762 50.334 51.771 50.334 51.78 50.3385C52.3159 50.7398 52.8995 51.0731 53.5174 51.3307C54.5186 51.7527 55.5826 51.9637 56.6781 51.9637C57.7735 51.9637 58.8331 51.7527 59.8387 51.3307C59.9734 51.2724 60.1081 51.214 60.2428 51.1511V62.0248ZM61.5717 43.8691C61.5717 46.5538 59.3718 48.7313 56.6646 48.7313C54.8329 48.7313 53.2346 47.7391 52.3906 46.2665C52.2604 46.042 52.0269 45.9029 51.7665 45.9029H51.7396C51.4837 45.9029 51.2457 46.042 51.1155 46.2665C50.6848 47.0177 50.0629 47.6414 49.313 48.0744C48.563 48.5073 47.7119 48.7339 46.846 48.7313C45.0187 48.7313 43.4249 47.7436 42.5809 46.2755C42.4462 46.0465 42.2038 45.9029 41.9389 45.9029C41.674 45.9029 41.4271 46.0465 41.2969 46.2755C40.8636 47.0238 40.2409 47.6448 39.4914 48.0759C38.7419 48.507 37.892 48.733 37.0273 48.7313C34.3201 48.7313 32.1203 46.5538 32.1203 43.8691V39.7746C32.1203 39.7612 32.1292 39.7522 32.1427 39.7522H61.5492C61.5627 39.7522 61.5717 39.7612 61.5717 39.7746V43.8691Z" fill="#167AC0"/>
</svg>
