<svg width="94" height="93" viewBox="0 0 94 93" fill="none" xmlns="http://www.w3.org/2000/svg">
<rect x="0.572937" y="0.962158" width="92.9676" height="91.9459" rx="20" fill="#EDFFE7"/>
<path d="M27.9013 37.8682V35.9526C27.3933 35.9526 26.9061 36.1545 26.5468 36.5137C26.1876 36.8729 25.9858 37.3601 25.9858 37.8682H27.9013ZM48.9723 37.8682H50.8878C50.8878 37.3601 50.686 36.8729 50.3268 36.5137C49.9675 36.1545 49.4803 35.9526 48.9723 35.9526V37.8682ZM48.9723 41.6993V39.7837C48.4642 39.7837 47.977 39.9855 47.6178 40.3448C47.2585 40.704 47.0567 41.1912 47.0567 41.6993H48.9723ZM27.9013 39.7837H48.9723V35.9526H27.9013V39.7837ZM47.0567 37.8682V60.8547H50.8878V37.8682H47.0567ZM29.8169 57.0236V37.8682H25.9858V57.0236H29.8169ZM48.9723 43.6148H58.55V39.7837H48.9723V43.6148ZM64.2966 49.3614V57.0236H68.1277V49.3614H64.2966ZM50.8878 60.8547V41.6993H47.0567V60.8547H50.8878ZM59.9043 62.209C59.545 62.5681 59.0579 62.7698 58.55 62.7698C58.042 62.7698 57.5549 62.5681 57.1957 62.209L54.4871 64.9175C55.5648 65.9949 57.0262 66.6001 58.55 66.6001C60.0738 66.6001 61.5352 65.9949 62.6128 64.9175L59.9043 62.209ZM57.1957 59.5004C57.5549 59.1413 58.042 58.9395 58.55 58.9395C59.0579 58.9395 59.545 59.1413 59.9043 59.5004L62.6128 56.7918C61.5352 55.7145 60.0738 55.1093 58.55 55.1093C57.0262 55.1093 55.5648 55.7145 54.4871 56.7918L57.1957 59.5004ZM36.9178 62.209C36.5586 62.5681 36.0714 62.7698 35.5635 62.7698C35.0555 62.7698 34.5684 62.5681 34.2092 62.209L31.5006 64.9175C32.5783 65.9949 34.0397 66.6001 35.5635 66.6001C37.0873 66.6001 38.5487 65.9949 39.6263 64.9175L36.9178 62.209ZM34.2092 59.5004C34.5684 59.1413 35.0555 58.9395 35.5635 58.9395C36.0714 58.9395 36.5586 59.1413 36.9178 59.5004L39.6263 56.7918C38.5487 55.7145 37.0873 55.1093 35.5635 55.1093C34.0397 55.1093 32.5783 55.7145 31.5006 56.7918L34.2092 59.5004ZM59.9043 59.5004C60.2797 59.8739 60.4655 60.3624 60.4655 60.8547H64.2966C64.2966 59.3874 63.7353 57.9124 62.6128 56.7918L59.9043 59.5004ZM60.4655 60.8547C60.4661 61.1063 60.4168 61.3555 60.3204 61.588C60.2241 61.8204 60.0827 62.0315 59.9043 62.209L62.6128 64.9175C63.147 64.3844 63.5707 63.7511 63.8596 63.0539C64.1486 62.3567 64.2971 61.6094 64.2966 60.8547H60.4655ZM54.7189 58.9391H48.9723V62.7702H54.7189V58.9391ZM57.1957 62.209C57.0173 62.0315 56.8758 61.8204 56.7795 61.588C56.6832 61.3555 56.6339 61.1063 56.6344 60.8547H52.8033C52.8033 62.322 53.3646 63.7969 54.4871 64.9175L57.1957 62.209ZM56.6344 60.8547C56.6334 60.603 56.6825 60.3536 56.7789 60.1211C56.8753 59.8886 57.0169 59.6776 57.1957 59.5004L54.4871 56.7918C53.9529 57.3249 53.5292 57.9582 53.2403 58.6554C52.9514 59.3526 52.8029 60.1 52.8033 60.8547H56.6344ZM34.2092 62.209C34.0308 62.0315 33.8893 61.8204 33.793 61.588C33.6967 61.3555 33.6474 61.1063 33.6479 60.8547H29.8169C29.8169 62.322 30.3781 63.7969 31.5006 64.9175L34.2092 62.209ZM33.6479 60.8547C33.6469 60.603 33.6961 60.3536 33.7924 60.1211C33.8888 59.8886 34.0305 59.6776 34.2092 59.5004L31.5006 56.7918C30.9665 57.3249 30.5428 57.9582 30.2538 58.6554C29.9649 59.3526 29.8164 60.1 29.8169 60.8547H33.6479ZM48.9723 58.9391H39.3946V62.7702H48.9723V58.9391ZM36.9178 59.5004C37.2932 59.8739 37.479 60.3624 37.479 60.8547H41.3101C41.3101 59.3874 40.7489 57.9124 39.6263 56.7918L36.9178 59.5004ZM37.479 60.8547C37.4796 61.1063 37.4303 61.3555 37.334 61.588C37.2376 61.8204 37.0962 62.0315 36.9178 62.209L39.6263 64.9175C40.1605 64.3844 40.5842 63.7511 40.8731 63.0539C41.1621 62.3567 41.3106 61.6094 41.3101 60.8547H37.479ZM64.2966 57.0236C64.2966 57.5316 64.0948 58.0188 63.7355 58.3781C63.3763 58.7373 62.8891 58.9391 62.381 58.9391V62.7702C63.9051 62.7702 65.3668 62.1648 66.4445 61.0871C67.5222 60.0094 68.1277 58.5477 68.1277 57.0236H64.2966ZM58.55 43.6148C60.0741 43.6148 61.5357 44.2202 62.6134 45.2979C63.6911 46.3756 64.2966 47.8373 64.2966 49.3614H68.1277C68.1277 48.1037 67.8799 46.8582 67.3986 45.6962C66.9173 44.5342 66.2118 43.4783 65.3224 42.589C64.4331 41.6996 63.3772 40.9941 62.2152 40.5128C61.0532 40.0315 59.8077 39.7837 58.55 39.7837V43.6148ZM25.9858 57.0236C25.9858 58.5477 26.5912 60.0094 27.6689 61.0871C28.7466 62.1648 30.2083 62.7702 31.7324 62.7702V58.9391C31.2244 58.9391 30.7371 58.7373 30.3779 58.3781C30.0187 58.0188 29.8169 57.5316 29.8169 57.0236H25.9858Z" fill="#30711A"/>
<path opacity="0.16" d="M48.9723 37.8682H27.9013V57.0236C27.9013 58.0396 28.3049 59.0141 29.0234 59.7326C29.7419 60.451 30.7163 60.8547 31.7324 60.8547C31.7324 59.8386 32.136 58.8641 32.8545 58.1457C33.573 57.4272 34.5474 57.0236 35.5635 57.0236C36.5795 57.0236 37.554 57.4272 38.2725 58.1457C38.9909 58.8641 39.3945 59.8386 39.3945 60.8547H48.9723V37.8682Z" fill="#30711A"/>
<path d="M38.4368 35.9527C38.4368 34.4286 37.8314 32.9669 36.7537 31.8892C35.676 30.8115 34.2143 30.2061 32.6902 30.2061C32.1822 30.2061 31.6949 30.4079 31.3357 30.7671C30.9765 31.1263 30.7747 31.6136 30.7747 32.1216C30.7747 33.6457 31.3801 35.1074 32.4578 36.1851C33.5355 37.2628 34.9972 37.8682 36.5213 37.8682H38.4368M38.4368 35.9527V37.8682M38.4368 35.9527C38.4368 34.4286 39.0423 32.9669 40.12 31.8892C41.1977 30.8115 42.6593 30.2061 44.1834 30.2061C44.6915 30.2061 45.1787 30.4079 45.5379 30.7671C45.8972 31.1263 46.099 31.6136 46.099 32.1216C46.099 33.6457 45.4935 35.1074 44.4158 36.1851C43.3381 37.2628 41.8765 37.8682 40.3524 37.8682H38.4368" stroke="#30711A" stroke-width="2" stroke-linejoin="round"/>
</svg>
