<svg width="94" height="93" viewBox="0 0 94 93" fill="none" xmlns="http://www.w3.org/2000/svg">
<rect x="0.362175" y="0.962158" width="92.9676" height="91.9459" rx="20" fill="#FFF3E8"/>
<path opacity="0.3" d="M53.6461 45.5303L58.933 35.9526H35.6592L40.199 45.5303H53.6461Z" fill="#C68C57"/>
<path d="M53.6461 49.3615C55.0828 49.3615 56.347 48.5761 56.9983 47.3885L63.856 34.9566C64.0174 34.6663 64.1002 34.3388 64.0962 34.0066C64.0923 33.6744 64.0016 33.349 63.8332 33.0626C63.6649 32.7762 63.4247 32.5388 63.1364 32.3737C62.8481 32.2087 62.5217 32.1218 62.1894 32.1216H33.8394L32.0388 28.2905H25.775V32.1216H29.6061L36.502 46.6606L33.9161 51.3345C32.5177 53.9013 34.3566 57.0236 37.2683 57.0236H60.2547V53.1926H37.2683L39.3754 49.3615H53.6461ZM35.6592 35.9527H58.933L53.6461 45.5304H40.199L35.6592 35.9527ZM37.2683 58.9392C35.1612 58.9392 33.4563 60.6632 33.4563 62.7703C33.4563 64.8774 35.1612 66.6013 37.2683 66.6013C39.3754 66.6013 41.0993 64.8774 41.0993 62.7703C41.0993 60.6632 39.3754 58.9392 37.2683 58.9392ZM56.4237 58.9392C54.3166 58.9392 52.6117 60.6632 52.6117 62.7703C52.6117 64.8774 54.3166 66.6013 56.4237 66.6013C58.5308 66.6013 60.2547 64.8774 60.2547 62.7703C60.2547 60.6632 58.5308 58.9392 56.4237 58.9392Z" fill="#C68C57"/>
</svg>
