<svg width="172" height="48" viewBox="0 0 172 48" fill="none" xmlns="http://www.w3.org/2000/svg">
<rect x="63" y="1" width="46" height="46" rx="6" stroke="#D9D9D9" stroke-width="2"/>
<path d="M98.7944 20.6081H89.6337C89.5011 20.6081 89.3926 20.7166 89.3926 20.8492V24.2242C89.3926 24.3567 89.5011 24.4652 89.6337 24.4652H91.0801C91.2127 24.4652 91.3212 24.3567 91.3212 24.2242V22.5367H93.1292V32.1795H91.7431C91.6105 32.1795 91.502 32.288 91.502 32.4206V33.867C91.502 33.9996 91.6105 34.1081 91.7431 34.1081H96.685C96.8176 34.1081 96.9261 33.9996 96.9261 33.867V32.4206C96.9261 32.288 96.8176 32.1795 96.685 32.1795H95.2989V22.5367H97.1069V24.2242C97.1069 24.3567 97.2154 24.4652 97.348 24.4652H98.7944C98.927 24.4652 99.0355 24.3567 99.0355 24.2242V20.8492C99.0355 20.7166 98.927 20.6081 98.7944 20.6081ZM90.8391 16.992V13.1349C90.8391 13.0023 90.7306 12.8938 90.598 12.8938H74.2051C74.0725 12.8938 73.9641 13.0023 73.9641 13.1349V16.992C73.9641 17.1246 74.0725 17.2331 74.2051 17.2331H75.8926C76.0252 17.2331 76.1337 17.1246 76.1337 16.992V15.0634H81.1962V31.9384H78.4239C78.2913 31.9384 78.1828 32.0469 78.1828 32.1795V33.867C78.1828 33.9996 78.2913 34.1081 78.4239 34.1081H86.3792C86.5118 34.1081 86.6203 33.9996 86.6203 33.867V32.1795C86.6203 32.0469 86.5118 31.9384 86.3792 31.9384H83.6069V15.0634H88.6694V16.992C88.6694 17.1246 88.7779 17.2331 88.9105 17.2331H90.598C90.7306 17.2331 90.8391 17.1246 90.8391 16.992Z" fill="url(#paint0_linear_9_110)"/>
<rect x="125" y="1" width="46" height="46" rx="6" stroke="#D9D9D9" stroke-width="2"/>
<path d="M156.167 30.497C157.483 30.497 158.559 29.4061 158.559 28.0712C158.559 26.459 156.167 23.8283 156.167 23.8283C156.167 23.8283 153.774 26.459 153.774 28.0712C153.774 29.4061 154.85 30.497 156.167 30.497ZM144.803 29.1681C145.017 29.382 145.364 29.382 145.574 29.1681L153.292 21.4538C153.506 21.2398 153.506 20.8933 153.292 20.6823L145.577 12.9681C145.559 12.95 145.538 12.9319 145.517 12.9168L143.161 10.5604C143.109 10.5096 143.04 10.4812 142.968 10.4812C142.896 10.4812 142.826 10.5096 142.775 10.5604L141.329 12.0068C141.278 12.0582 141.249 12.1274 141.249 12.1996C141.249 12.2718 141.278 12.3411 141.329 12.3925L143.354 14.4175L137.092 20.6823C136.878 20.8963 136.878 21.2428 137.092 21.4538L144.803 29.1681ZM145.192 15.65L150.583 21.0409H139.804L145.192 15.65V15.65ZM160.313 32.6576H136.688C136.555 32.6576 136.447 32.766 136.447 32.8986V35.3094C136.447 35.4419 136.555 35.5504 136.688 35.5504H160.313C160.446 35.5504 160.554 35.4419 160.554 35.3094V32.8986C160.554 32.766 160.446 32.6576 160.313 32.6576Z" fill="url(#paint1_linear_9_110)"/>
<rect x="1" y="1" width="46" height="46" rx="6" stroke="#D9D9D9" stroke-width="2"/>
<path d="M36.4716 23.3277L32.6266 20.2932C32.5944 20.2679 32.5557 20.2521 32.515 20.2478C32.4743 20.2434 32.4332 20.2506 32.3964 20.2685C32.3596 20.2865 32.3286 20.3144 32.307 20.3491C32.2853 20.3839 32.2739 20.424 32.274 20.4649V22.4146H25.5843V15.7249H27.5369C27.7177 15.7249 27.8202 15.5139 27.7087 15.3723L24.6712 11.5272C24.6511 11.5012 24.6253 11.4801 24.5958 11.4656C24.5663 11.4511 24.5338 11.4436 24.5009 11.4436C24.4681 11.4436 24.4356 11.4511 24.4061 11.4656C24.3766 11.4801 24.3508 11.5012 24.3307 11.5272L21.2932 15.3723C21.2679 15.4045 21.2521 15.4431 21.2478 15.4838C21.2434 15.5245 21.2506 15.5656 21.2686 15.6024C21.2865 15.6392 21.3144 15.6702 21.3492 15.6919C21.3839 15.7135 21.424 15.725 21.465 15.7249H23.4146V22.4146H16.7249V20.4619C16.7249 20.2811 16.5139 20.1787 16.3723 20.2902L12.5272 23.3277C12.5012 23.3478 12.4801 23.3736 12.4656 23.4031C12.4512 23.4326 12.4436 23.465 12.4436 23.4979C12.4436 23.5308 12.4512 23.5632 12.4656 23.5928C12.4801 23.6223 12.5012 23.6481 12.5272 23.6682L16.3693 26.7057C16.5109 26.8172 16.7219 26.7177 16.7219 26.5339V24.5842H23.4116V31.274H21.4589C21.2781 31.274 21.1757 31.4849 21.2872 31.6265L24.3247 35.4686C24.412 35.5801 24.5808 35.5801 24.6652 35.4686L27.7027 31.6265C27.8142 31.4849 27.7147 31.274 27.5309 31.274H25.5843V24.5842H32.274V26.5369C32.274 26.7177 32.4849 26.8202 32.6266 26.7087L36.4686 23.6712C36.4946 23.6508 36.5156 23.6248 36.5301 23.5952C36.5447 23.5656 36.5524 23.5331 36.5527 23.5001C36.553 23.4672 36.5458 23.4345 36.5318 23.4047C36.5178 23.3748 36.4972 23.3485 36.4716 23.3277V23.3277Z" fill="url(#paint2_linear_9_110)"/>
<defs>
<linearGradient id="paint0_linear_9_110" x1="108.437" y1="40.2407" x2="75.7826" y2="24.5576" gradientUnits="userSpaceOnUse">
<stop stop-color="#E4E4E2"/>
<stop offset="1" stop-color="#F7F7F7"/>
</linearGradient>
<linearGradient id="paint1_linear_9_110" x1="169.594" y1="42.7974" x2="136.072" y2="29.6974" gradientUnits="userSpaceOnUse">
<stop stop-color="#E4E4E2"/>
<stop offset="1" stop-color="#F7F7F7"/>
</linearGradient>
<linearGradient id="paint2_linear_9_110" x1="45.5936" y1="42.5215" x2="12.4269" y2="29.0429" gradientUnits="userSpaceOnUse">
<stop stop-color="#E4E4E2"/>
<stop offset="1" stop-color="#F7F7F7"/>
</linearGradient>
</defs>
</svg>
