<svg width="94" height="93" viewBox="0 0 94 93" fill="none" xmlns="http://www.w3.org/2000/svg">
<rect x="0.572937" y="0.0703125" width="92.9676" height="91.9459" rx="20" fill="#F1F0FF"/>
<g clip-path="url(#clip0_1_508)">
<mask id="mask0_1_508" style="mask-type:luminance" maskUnits="userSpaceOnUse" x="24" y="35" width="49" height="33">
<path d="M33.1586 41.2259L31.8396 38.6732C31.4898 37.9962 30.8853 37.4859 30.1592 37.2546C29.4332 37.0232 28.6449 37.0897 27.9679 37.4396C27.2909 37.7894 26.7806 38.3938 26.5492 39.1199C26.3178 39.846 26.3844 40.6342 26.7342 41.3112L29.8119 47.2675" stroke="white" stroke-width="4" stroke-linecap="round" stroke-linejoin="round"/>
<path d="M30.7765 55.3938C27.8629 49.755 30.0724 42.8208 35.7113 39.9071C41.3501 36.9935 48.2843 39.203 51.198 44.8419L56.4739 55.0526L36.0525 65.6046L30.7765 55.3938ZM51.198 44.8419L64.8123 37.8073L70.0882 48.018L56.4739 55.0526L51.198 44.8419Z" fill="#555555"/>
<path d="M51.198 44.8419C48.2843 39.203 41.3501 36.9935 35.7113 39.9071C30.0724 42.8208 27.8629 49.755 30.7765 55.3938L36.0525 65.6046L56.4739 55.0526M51.198 44.8419L56.4739 55.0526M51.198 44.8419L64.8123 37.8073L70.0882 48.018L56.4739 55.0526" stroke="white" stroke-width="4" stroke-linejoin="round"/>
<path d="M42.7459 53.5214C44.6256 52.5501 45.3621 50.2389 44.3908 48.3592C43.4195 46.4794 41.1083 45.743 39.2286 46.7142C37.3488 47.6855 36.6124 49.9967 37.5837 51.8765C38.5549 53.7562 40.8662 54.4927 42.7459 53.5214Z" fill="#555555" stroke="white" stroke-width="4"/>
<path d="M60.5578 40.0054L62.3164 43.409M55.4524 42.6434L57.2111 46.047M52.8997 43.9624L63.1104 38.6864" stroke="white" stroke-width="4" stroke-linecap="round" stroke-linejoin="round"/>
</mask>
<g mask="url(#mask0_1_508)">
<path d="M15.502 34.1782L56.3449 13.0744L77.4487 53.9173L36.6058 75.0211L15.502 34.1782Z" fill="#3734A9"/>
</g>
</g>
<defs>
<clipPath id="clip0_1_508">
<rect width="45.973" height="45.973" fill="white" transform="translate(15.8973 36.8486) rotate(-27.3257)"/>
</clipPath>
</defs>
</svg>
