<svg width="30" height="30" viewBox="0 0 30 30" fill="none" xmlns="http://www.w3.org/2000/svg">
<path d="M28.313 26.4717L19.6177 17.7764C20.967 16.032 21.6969 13.8992 21.6969 11.6558C21.6969 8.97058 20.6489 6.45272 18.7539 4.55429C16.8588 2.65585 14.3342 1.61121 11.6523 1.61121C8.97037 1.61121 6.44582 2.6592 4.55073 4.55429C2.65229 6.44938 1.60765 8.97058 1.60765 11.6558C1.60765 14.3378 2.65564 16.8623 4.55073 18.7574C6.44582 20.6558 8.96703 21.7005 11.6523 21.7005C13.8956 21.7005 16.0251 20.9706 17.7695 19.6246L26.4648 28.3166C26.4903 28.3421 26.5206 28.3623 26.5539 28.3761C26.5872 28.3899 26.6229 28.397 26.659 28.397C26.6951 28.397 26.7308 28.3899 26.7641 28.3761C26.7974 28.3623 26.8277 28.3421 26.8532 28.3166L28.313 26.8601C28.3385 26.8346 28.3588 26.8043 28.3726 26.771C28.3864 26.7377 28.3935 26.702 28.3935 26.6659C28.3935 26.6298 28.3864 26.5941 28.3726 26.5608C28.3588 26.5275 28.3385 26.4972 28.313 26.4717V26.4717ZM16.9559 16.9594C15.5362 18.3757 13.6545 19.1559 11.6523 19.1559C9.65006 19.1559 7.76837 18.3757 6.34872 16.9594C4.93243 15.5398 4.15229 13.6581 4.15229 11.6558C4.15229 9.65362 4.93243 7.76857 6.34872 6.35228C7.76837 4.93598 9.65006 4.15585 11.6523 4.15585C13.6545 4.15585 15.5396 4.93264 16.9559 6.35228C18.3722 7.77192 19.1523 9.65362 19.1523 11.6558C19.1523 13.6581 18.3722 15.5431 16.9559 16.9594Z" fill="#898989"/>
</svg>
