<svg width="30" height="30" viewBox="0 0 30 30" fill="none" xmlns="http://www.w3.org/2000/svg">
<path d="M28.313 26.4718L19.6177 17.7765C20.967 16.0321 21.6969 13.8993 21.6969 11.656C21.6969 8.9707 20.6489 6.45285 18.7539 4.55441C16.8588 2.65597 14.3342 1.61133 11.6523 1.61133C8.97037 1.61133 6.44582 2.65932 4.55073 4.55441C2.65229 6.4495 1.60765 8.9707 1.60765 11.656C1.60765 14.3379 2.65564 16.8624 4.55073 18.7575C6.44582 20.656 8.96703 21.7006 11.6523 21.7006C13.8956 21.7006 16.0251 20.9707 17.7695 19.6247L26.4648 28.3167C26.4903 28.3422 26.5206 28.3624 26.5539 28.3762C26.5872 28.3901 26.6229 28.3972 26.659 28.3972C26.6951 28.3972 26.7308 28.3901 26.7641 28.3762C26.7974 28.3624 26.8277 28.3422 26.8532 28.3167L28.313 26.8602C28.3385 26.8347 28.3588 26.8044 28.3726 26.7711C28.3864 26.7378 28.3935 26.7021 28.3935 26.666C28.3935 26.6299 28.3864 26.5942 28.3726 26.5609C28.3588 26.5276 28.3385 26.4973 28.313 26.4718V26.4718ZM16.9559 16.9595C15.5362 18.3758 13.6545 19.156 11.6523 19.156C9.65006 19.156 7.76837 18.3758 6.34872 16.9595C4.93243 15.5399 4.15229 13.6582 4.15229 11.656C4.15229 9.65374 4.93243 7.76869 6.34872 6.3524C7.76837 4.93611 9.65006 4.15597 11.6523 4.15597C13.6545 4.15597 15.5396 4.93276 16.9559 6.3524C18.3722 7.77204 19.1523 9.65374 19.1523 11.656C19.1523 13.6582 18.3722 15.5432 16.9559 16.9595Z" fill="#898989"/>
</svg>
