<svg width="476" height="649" viewBox="0 0 476 649" fill="none" xmlns="http://www.w3.org/2000/svg">
<path opacity="0.0833333" fill-rule="evenodd" clip-rule="evenodd" d="M305.366 216.197C331.619 224.582 346.096 256.054 352.696 282.237C358.94 307.004 341.517 329.641 340.28 354.697C339 380.607 354.343 407.602 345.32 431.547C335.65 457.213 313.832 476.722 289.421 489.675C263.867 503.235 230.329 522.148 204.307 506.373C174.248 488.151 189.643 436.117 163.088 413.089C140.547 393.541 88.6419 423.722 77.6654 396.552C66.2631 368.327 128.851 357.006 128.41 327.249C127.898 292.639 69.9443 270.294 75.2928 236.421C79.7017 208.499 119.797 196.483 148.911 197.413C177.827 198.336 195.261 237.707 224.13 241.173C253.479 244.697 276.952 207.122 305.366 216.197Z" stroke="url(#paint0_linear_1_430)" stroke-opacity="0.2" stroke-width="1.72076"/>
<path opacity="0.166667" fill-rule="evenodd" clip-rule="evenodd" d="M292.985 232.64C317.915 244.064 328.326 276.951 331.603 303.667C334.702 328.937 314.654 349.285 310.317 373.951C305.832 399.46 317.656 428.017 305.756 450.659C293 474.928 268.993 491.656 243.235 501.584C216.27 511.976 180.742 526.722 156.96 508.007C129.487 486.388 151.182 436.686 127.773 410.725C107.902 388.688 52.8045 412.409 45.3215 384.197C37.5482 354.89 100.871 351.115 104.132 321.593C107.924 287.256 53.3694 258.241 62.8689 225.33C70.6995 198.201 111.857 191.066 140.543 195.446C169.035 199.796 181.389 240.859 209.518 247.722C238.115 254.699 266.004 220.276 292.985 232.64Z" stroke="url(#paint1_linear_1_430)" stroke-opacity="0.2" stroke-width="1.72076"/>
<path opacity="0.25" fill-rule="evenodd" clip-rule="evenodd" d="M278.855 247.087C302.114 261.353 308.332 295.137 308.255 321.966C308.182 347.342 285.807 365.099 278.447 388.996C270.836 413.707 278.992 443.374 264.397 464.369C248.753 486.872 222.909 500.576 196.176 507.342C168.191 514.424 131.188 524.798 109.972 503.452C85.463 478.795 113.117 432.183 93.1715 403.711C76.2399 379.541 18.7491 396.474 14.8484 367.664C10.7964 337.737 73.9503 341.522 80.848 312.692C88.8705 279.161 38.4719 243.966 51.9666 212.524C63.0905 186.605 104.721 184.432 132.573 192.173C160.236 199.862 167.362 241.968 194.355 252.1C221.796 262.402 253.683 231.646 278.855 247.087Z" stroke="url(#paint2_linear_1_430)" stroke-opacity="0.2" stroke-width="1.72076"/>
<path opacity="0.333333" fill-rule="evenodd" clip-rule="evenodd" d="M263.243 259.351C284.51 276.224 286.474 310.375 283.065 336.898C279.841 361.986 255.471 376.888 245.213 399.646C234.604 423.181 238.998 453.49 221.934 472.518C203.642 492.914 176.339 503.395 149.018 506.909C120.417 510.587 82.4748 516.449 64.1091 492.816C42.8939 465.517 76.0769 422.707 59.8554 392.178C46.0853 366.262 -12.9671 376.175 -13.2528 347.22C-13.5496 317.141 48.5393 328.39 58.9527 300.698C71.0642 268.49 25.5117 227.693 42.7845 198.201C57.0227 173.891 98.5304 176.689 125.159 187.656C151.607 198.548 153.436 241.036 178.915 254.265C204.818 267.715 240.225 241.088 263.243 259.351Z" stroke="url(#paint3_linear_1_430)" stroke-opacity="0.2" stroke-width="1.72076"/>
<path opacity="0.416667" fill-rule="evenodd" clip-rule="evenodd" d="M246.431 269.279C265.42 288.489 263.134 322.475 256.468 348.283C250.163 372.694 224.161 384.519 211.172 405.79C197.74 427.786 198.339 458.265 179.066 475.038C158.408 493.017 130.046 500.123 102.53 500.342C73.7254 500.571 35.3905 501.844 20.1156 476.3C2.47064 446.793 40.6673 408.434 28.3725 376.329C17.9357 349.076 -41.8253 351.84 -38.5198 323.188C-35.086 293.425 25.0619 311.938 38.8158 285.81C54.8125 255.421 14.7175 209.674 35.4933 182.584C52.6192 160.253 93.4146 167.963 118.449 181.974C143.314 195.889 139.861 238.099 163.477 254.209C187.485 270.586 225.88 248.488 246.431 269.279Z" stroke="url(#paint4_linear_1_430)" stroke-opacity="0.2" stroke-width="1.72076"/>
<path opacity="0.5" fill-rule="evenodd" clip-rule="evenodd" d="M228.722 276.756C245.18 298.001 238.715 331.297 228.916 355.993C219.648 379.352 192.4 387.924 176.891 407.382C160.853 427.504 157.681 457.681 136.496 471.945C113.788 487.235 84.7828 490.865 57.467 487.792C28.8724 484.575 -9.30286 481.252 -21.296 454.195C-35.15 422.939 7.46935 389.616 -0.757823 356.434C-7.74174 328.267 -67.3499 323.854 -60.5323 295.948C-53.4503 266.96 3.91326 292.435 20.781 268.271C40.3995 240.165 6.28716 190.187 30.2377 165.911C49.9805 145.901 89.4861 158.392 112.583 175.223C135.523 191.94 126.885 233.221 148.315 251.956C170.101 271.002 210.908 253.764 228.722 276.756Z" stroke="url(#paint5_linear_1_430)" stroke-opacity="0.2" stroke-width="1.72076"/>
<path opacity="0.583333" fill-rule="evenodd" clip-rule="evenodd" d="M210.425 281.706C224.141 304.657 213.631 336.754 200.872 359.96C188.803 381.909 160.714 387.102 142.934 404.451C124.547 422.392 117.688 451.805 94.9147 463.345C70.504 475.715 41.2802 475.817 14.5567 469.504C-13.4179 462.895 -50.8849 455.031 -59.4559 426.877C-69.3569 394.356 -22.9732 366.571 -27.0546 332.823C-30.5192 304.175 -89.1169 292.663 -78.9205 265.93C-68.3285 238.159 -14.5485 270.198 5.15916 248.365C28.0806 222.972 0.383164 169.532 27.1316 148.441C49.1808 131.054 86.84 148.129 107.686 167.52C128.39 186.778 114.742 226.498 133.699 247.568C152.972 268.988 195.579 256.867 210.425 281.706Z" stroke="url(#paint6_linear_1_430)" stroke-opacity="0.2" stroke-width="1.72076"/>
<path opacity="0.666667" fill-rule="evenodd" clip-rule="evenodd" d="M191.855 284.089C202.659 308.396 188.3 338.808 172.798 360.172C158.134 380.38 129.623 382.115 109.854 397.093C89.4102 412.581 79.0046 440.784 54.9909 449.426C29.251 458.689 0.235789 455.263 -25.5131 445.807C-52.4675 435.909 -88.6887 423.625 -93.7499 394.804C-99.5963 361.511 -50.1634 339.686 -50.0842 305.884C-50.0169 277.191 -106.763 258.757 -93.3721 233.602C-79.462 207.471 -30.0092 245.583 -7.77885 226.412C18.0767 204.115 -2.87197 148.029 26.2552 130.439C50.2653 115.94 85.5502 137.337 103.866 158.991C122.056 180.497 103.651 218.053 119.887 241.136C136.393 264.604 180.161 257.782 191.855 284.089Z" stroke="url(#paint7_linear_1_430)" stroke-opacity="0.2" stroke-width="1.72076"/>
<path opacity="0.75" fill-rule="evenodd" clip-rule="evenodd" d="M173.329 283.906C181.095 309.204 163.143 337.473 145.156 356.674C128.142 374.836 99.6317 373.089 78.187 385.47C56.0108 398.274 42.2507 424.843 17.364 430.457C-9.3116 436.474 -37.6941 429.572 -62.1009 417.116C-87.6503 404.077 -122.107 387.56 -123.624 358.504C-125.376 324.939 -73.6545 309.4 -69.4628 276.054C-65.9045 247.746 -119.985 222.669 -103.633 199.47C-86.6467 175.372 -42.1993 218.983 -17.8016 202.762C10.5749 183.897 -3.39315 126.007 27.6578 112.183C53.2537 100.788 85.6724 126.186 101.217 149.777C116.655 173.208 93.8167 208.036 107.123 232.785C120.65 257.947 164.923 256.526 173.329 283.906Z" stroke="url(#paint8_linear_1_430)" stroke-opacity="0.2" stroke-width="1.72076"/>
<path opacity="0.833333" fill-rule="evenodd" clip-rule="evenodd" d="M155.158 281.196C159.805 307.11 138.567 332.815 118.392 349.569C99.3086 365.415 71.2229 360.211 48.4408 369.812C24.8814 379.74 8.01 404.28 -17.3697 406.783C-44.5736 409.465 -71.9087 399.189 -94.6259 383.918C-118.407 367.932 -150.608 347.427 -148.598 318.568C-146.276 285.232 -93.0615 276.21 -84.8669 243.814C-77.9105 216.313 -128.553 184.965 -109.516 164.067C-89.7416 142.359 -50.9029 190.821 -24.7253 177.792C5.72116 162.638 -1.13875 103.805 31.3523 93.9531C58.1351 85.8322 87.2387 114.853 99.8125 140.031C112.301 165.037 85.4198 196.619 95.6322 222.667C106.014 249.149 150.128 253.151 155.158 281.196Z" stroke="url(#paint9_linear_1_430)" stroke-opacity="0.2" stroke-width="1.72076"/>
<path opacity="0.916667" fill-rule="evenodd" clip-rule="evenodd" d="M137.646 276.036C139.14 302.183 114.973 324.949 92.9377 339.009C72.0947 352.307 44.8513 343.724 21.0895 350.404C-3.48292 357.313 -23.1767 379.463 -48.662 378.819C-75.9792 378.127 -101.868 364.63 -122.573 346.769C-144.247 328.072 -173.734 303.881 -168.267 275.643C-161.953 243.024 -108.063 240.65 -96.0341 209.68C-85.823 183.39 -132.304 146.233 -110.9 127.943C-88.6661 108.943 -55.9565 161.543 -28.413 151.896C3.62216 140.675 3.89279 81.7634 37.3188 76.0272C64.8725 71.2987 90.2607 103.515 99.7088 129.909C109.093 156.124 78.6192 183.997 85.6194 210.961C92.736 238.373 136.028 247.736 137.646 276.036Z" stroke="url(#paint10_linear_1_430)" stroke-opacity="0.2" stroke-width="1.72076"/>
<path fill-rule="evenodd" clip-rule="evenodd" d="M121.082 268.538C119.435 294.539 92.738 314.037 69.1978 325.201C46.9314 335.761 20.9353 323.925 -3.43427 327.591C-28.6351 331.381 -50.821 350.823 -76.0235 347.043C-103.037 342.991 -127.101 326.472 -145.502 306.282C-164.764 285.148 -191.116 257.625 -182.314 230.419C-172.147 198.991 -118.408 203.294 -102.769 174.198C-89.4942 149.5 -131.153 107.079 -107.733 91.66C-83.4041 75.6428 -57.254 131.613 -28.7783 125.484C4.34123 118.357 11.6606 60.2226 45.5034 58.6816C73.4005 57.4113 94.728 92.3517 100.941 119.578C107.111 146.619 73.5477 170.381 77.2642 197.868C81.0425 225.811 122.865 240.397 121.082 268.538Z" stroke="url(#paint11_linear_1_430)" stroke-opacity="0.2" stroke-width="1.72076"/>
<defs>
<linearGradient id="paint0_linear_1_430" x1="187.046" y1="33.9173" x2="85.8082" y2="556.646" gradientUnits="userSpaceOnUse">
<stop stop-color="#FFC881"/>
<stop offset="1" stop-color="#DA8517"/>
</linearGradient>
<linearGradient id="paint1_linear_1_430" x1="198.582" y1="38.0601" x2="35.6269" y2="544.402" gradientUnits="userSpaceOnUse">
<stop stop-color="#FFC881"/>
<stop offset="1" stop-color="#DA8517"/>
</linearGradient>
<linearGradient id="paint2_linear_1_430" x1="209.59" y1="43.3075" x2="-12.6038" y2="526.01" gradientUnits="userSpaceOnUse">
<stop stop-color="#FFC881"/>
<stop offset="1" stop-color="#DA8517"/>
</linearGradient>
<linearGradient id="paint3_linear_1_430" x1="219.94" y1="49.5853" x2="-58.167" y2="501.753" gradientUnits="userSpaceOnUse">
<stop stop-color="#FFC881"/>
<stop offset="1" stop-color="#DA8517"/>
</linearGradient>
<linearGradient id="paint4_linear_1_430" x1="229.508" y1="56.8043" x2="-100.388" y2="472.001" gradientUnits="userSpaceOnUse">
<stop stop-color="#FFC881"/>
<stop offset="1" stop-color="#DA8517"/>
</linearGradient>
<linearGradient id="paint5_linear_1_430" x1="238.186" y1="64.8598" x2="-138.639" y2="437.198" gradientUnits="userSpaceOnUse">
<stop stop-color="#FFC881"/>
<stop offset="1" stop-color="#DA8517"/>
</linearGradient>
<linearGradient id="paint6_linear_1_430" x1="245.877" y1="73.636" x2="-172.353" y2="397.86" gradientUnits="userSpaceOnUse">
<stop stop-color="#FFC881"/>
<stop offset="1" stop-color="#DA8517"/>
</linearGradient>
<linearGradient id="paint7_linear_1_430" x1="252.501" y1="83.0048" x2="-201.03" y2="354.566" gradientUnits="userSpaceOnUse">
<stop stop-color="#FFC881"/>
<stop offset="1" stop-color="#DA8517"/>
</linearGradient>
<linearGradient id="paint8_linear_1_430" x1="257.993" y1="92.8294" x2="-224.24" y2="307.95" gradientUnits="userSpaceOnUse">
<stop stop-color="#FFC881"/>
<stop offset="1" stop-color="#DA8517"/>
</linearGradient>
<linearGradient id="paint9_linear_1_430" x1="262.305" y1="102.967" x2="-241.636" y2="258.693" gradientUnits="userSpaceOnUse">
<stop stop-color="#FFC881"/>
<stop offset="1" stop-color="#DA8517"/>
</linearGradient>
<linearGradient id="paint10_linear_1_430" x1="265.41" y1="113.269" x2="-252.954" y2="207.507" gradientUnits="userSpaceOnUse">
<stop stop-color="#FFC881"/>
<stop offset="1" stop-color="#DA8517"/>
</linearGradient>
<linearGradient id="paint11_linear_1_430" x1="267.295" y1="123.586" x2="-258.016" y2="155.133" gradientUnits="userSpaceOnUse">
<stop stop-color="#FFC881"/>
<stop offset="1" stop-color="#DA8517"/>
</linearGradient>
</defs>
</svg>
